<?xml version="1.0" standalone="no"?>
<!DOCTYPE svg PUBLIC "-//W3C//DTD SVG 1.1//EN"
	"http://www.w3.org/Graphics/SVG/1.1/DTD/svg11.dtd">
<svg xmlns="http://www.w3.org/2000/svg" version="1.1"
	xmlns:xlink="http://www.w3.org/1999/xlink"
	xml:space='preserve' color="black"
	width="7.38in" height="3.33in" viewBox="0 0 531 240">
<title>magnificat-cf.abc (1) tune 1</title>
<!-- Creator: abcm2ps-7.8.9 -->
<!-- CreationDate: Sep  2, 2017 14:41 -->
<!-- CommandLine: -g -O magnificat-cf.svg magnificat-cf.abc -->
<g transform="scale(0.750)" stroke-width="0.70" font-family="Times" font-size="20.00">
<text x="354.13" y="21.67" text-anchor="middle">Magnificat</text>
<path stroke="currentColor" fill="none"
	d="M228.23 99.01v-24.00"/>
<path stroke="currentColor" fill="none"
	d="M412.83 99.01v-24.00"/>
<path stroke="currentColor" fill="none"
	d="M553.83 99.01v-24.00"/>
<path stroke="currentColor" fill="none"
	d="M694.93 99.01v-24.00"/>
<path stroke="currentColor" fill="none"
	d="M13.33 99.01h681.60m-681.60 -6h681.60m-681.60 -6h681.60m-681.60 -6h681.60m-681.60 -6h681.60"/>
</g>
<g transform="scale(0.750)" stroke-width="0.70" font-family="Times" font-size="13.00" font-weight="bold">
<text x="75.33" y="123.81">Ma</text>
<path stroke="currentColor" fill="none" stroke-width="1.2"
	stroke-dasharray="5,23"
	d="M112.73 119.91h5"/>
<text x="130.13" y="123.81">gni</text>
<path stroke="currentColor" fill="none" stroke-width="1.2"
	stroke-dasharray="5,20"
	d="M155.33 119.91h5"/>
<text x="161.23" y="123.81">fi</text>
<path stroke="currentColor" fill="none" stroke-width="1.2"
	stroke-dasharray="5,20"
	d="M179.93 119.91h5"/>
<text x="188.43" y="123.81">cat</text>
<text x="266.53" y="123.81">Ma</text>
<path stroke="currentColor" fill="none" stroke-width="0.8"
	d="M287.73 123.81h19.30"/>
<text x="314.73" y="123.81">gni</text>
<path stroke="currentColor" fill="none" stroke-width="1.2"
	stroke-dasharray="5,20"
	d="M339.83 119.91h5"/>
<text x="345.83" y="123.81">fi</text>
<path stroke="currentColor" fill="none" stroke-width="1.2"
	stroke-dasharray="5,20"
	d="M364.43 119.91h5"/>
<text x="372.93" y="123.81">cat</text>
<text x="420.83" y="123.81">Do</text>
<path stroke="currentColor" fill="none" stroke-width="1.2"
	stroke-dasharray="5,20"
	d="M449.88 119.91h5"/>
<text x="460.43" y="123.81">mi</text>
<path stroke="currentColor" fill="none" stroke-width="1.2"
	stroke-dasharray="5,20"
	d="M487.38 119.91h5"/>
<text x="497.93" y="123.81">num</text>
<text x="564.63" y="123.81">me</text>
<path stroke="currentColor" fill="none" stroke-width="0.8"
	d="M584.23 123.81h34.50"/>
<text x="641.73" y="123.81">um</text>
<text x="75.33" y="138.01">Ma</text>
<path stroke="currentColor" fill="none" stroke-width="1.2"
	stroke-dasharray="5,23"
	d="M112.73 134.11h5"/>
<text x="130.13" y="138.01">gni</text>
<path stroke="currentColor" fill="none" stroke-width="1.2"
	stroke-dasharray="5,20"
	d="M155.33 134.11h5"/>
<text x="161.23" y="138.01">fi</text>
<path stroke="currentColor" fill="none" stroke-width="1.2"
	stroke-dasharray="5,20"
	d="M179.93 134.11h5"/>
<text x="188.43" y="138.01">cat</text>
<text x="271.43" y="138.01">a</text>
<path stroke="currentColor" fill="none" stroke-width="0.8"
	d="M280.43 138.01h26.60"/>
<text x="320.13" y="138.01">ni</text>
<path stroke="currentColor" fill="none" stroke-width="0.8"
	d="M333.83 138.01h26.80"/>
<text x="372.63" y="138.01">ma</text>
<text x="423.53" y="138.01">me</text>
<path stroke="currentColor" fill="none" stroke-width="0.8"
	d="M443.23 138.01h34.50"/>
<text x="505.23" y="138.01">a</text>
<text x="561.83" y="138.01">Do</text>
<path stroke="currentColor" fill="none" stroke-width="1.2"
	stroke-dasharray="5,20"
	d="M590.88 134.11h5"/>
<text x="601.53" y="138.01">mi</text>
<path stroke="currentColor" fill="none" stroke-width="1.2"
	stroke-dasharray="5,20"
	d="M628.38 134.11h5"/>
<text x="639.03" y="138.01">num</text>
</g>
<g transform="scale(0.750)" stroke-width="0.70" font-family="Helvetica" font-size="12.00">
<text x="431.13" y="62.61">I</text>
<defs>
<path id="utclef" fill="currentColor" d="m-50 -90
	c-72 -41 -72 -158 52 -188
	c150 -10 220 188 90 256
	c-114 52 -275 0 -293 -136
	c-15 -181 93 -229 220 -334
	c88 -87 79 -133 62 -210
	c-51 33 -94 105 -89 186
	c17 267 36 374 49 574
	c6 96 -19 134 -77 135
	c-80 1 -126 -93 -61 -133
	c85 -41 133 101 31 105
	c23 17 92 37 90 -92
	c-10 -223 -39 -342 -50 -617
	c0 -90 0 -162 96 -232
	c56 72 63 230 22 289
	c-74 106 -257 168 -255 316
	c9 153 148 185 252 133
	c86 -65 29 -192 -80 -176
	c-71 12 -105 67 -59 124"/>
<use id="tclef" transform="scale(0.045)"
	xlink:href="#utclef"/>
</defs>
<use x="25.33" y="99.01" xlink:href="#tclef"/>
<defs>
<path id="uflat" fill="currentColor" d="
	m100 -746
	h32
	v734
	l-32 4
	m32 -332
	c46 -72 152 -90 208 -20
	c100 110 -120 326 -208 348
	m0 -28
	c54 0 200 -206 130 -290
	c-50 -60 -130 -4 -130 34"/>
<use id="ft0" transform="translate(-3.5,3.5) scale(0.018)"
	xlink:href="#uflat"/>
</defs>
<use x="40.33" y="87.01" xlink:href="#ft0"/>
<use x="45.83" y="78.01" xlink:href="#ft0"/>
<g font-family="serif" font-size="16" font-weight="bold" font-style="normal"
	transform="translate(61.83,99.01) scale(1.2,1)">
	<text y="-1" text-anchor="middle">4</text>
	<text y="-13" text-anchor="middle">4</text>
</g>
<defs>
<path id="hl" stroke="currentColor" d="m-6 0h12"/>
</defs>
<use x="88.03" y="105.01" xlink:href="#hl"/>
<defs>
<path id="Hd" fill="currentColor" d="m3 -1.6
	c-1 -1.8 -7 1.4 -6 3.2
	c1 1.8 7 -1.4 6 -3.2
	m0.5 -0.3
	c2 3.8 -5 7.6 -7 3.8
	c-2 -3.8 5 -7.6 7 -3.8"/>
</defs>
<use x="88.03" y="105.01" xlink:href="#Hd"/>
<path d="M91.53 105.01v-20.00" stroke="currentColor" fill="none"/>
<path fill="currentColor"
	d="M145.73 73.21l28.10 2.50v3.20l-28.10 -2.50"/>
<defs>
<ellipse id="hd" rx="4.1" ry="2.9"
	transform="rotate(-20)" fill="currentColor"/>
</defs>
<use x="142.63" y="93.01" xlink:href="#hd"/>
<path d="M146.13 93.01v-18.70" stroke="currentColor" fill="none"/>
<use x="170.03" y="96.01" xlink:href="#hd"/>
<path d="M173.53 96.01v-19.30" stroke="currentColor" fill="none"/>
<use x="197.53" y="93.01" xlink:href="#hd"/>
<path d="M201.03 93.01v-20.00" stroke="currentColor" fill="none"/>
<defs>
<path id="r4" fill="currentColor" d="m-1 -8.5
	l3.6 5.1 -2.1 5.2 2.2 4.3
	c-2.6 -2.3 -5.1 0 -2.4 2.6
	c-4.8 -3 -1.5 -6.9 1.4 -4.1
	l-3.1 -4.5 1.9 -5.1 -1.5 -3.5"/>
</defs>
<use x="242.03" y="87.01" xlink:href="#r4"/>
<path fill="currentColor"
	d="M279.73 78.01l78.70 0.00v3.20l-78.70 -0.00"/>
<use x="276.53" y="96.01" xlink:href="#hd"/>
<path d="M280.03 96.01v-17.00" stroke="currentColor" fill="none"/>
<use x="301.03" y="99.01" xlink:href="#hd"/>
<path d="M304.53 99.01v-20.00" stroke="currentColor" fill="none"/>
<use x="327.13" y="102.01" xlink:href="#hd"/>
<path d="M330.63 102.01v-23.00" stroke="currentColor" fill="none"/>
<use x="354.63" y="99.01" xlink:href="#hd"/>
<path d="M358.13 99.01v-20.00" stroke="currentColor" fill="none"/>
<use x="382.03" y="96.01" xlink:href="#hd"/>
<path d="M385.53 96.01v-20.00" stroke="currentColor" fill="none"/>
<use x="432.93" y="99.01" xlink:href="#hd"/>
<path d="M436.43 99.01v-20.00" stroke="currentColor" fill="none"/>
<use x="471.63" y="105.01" xlink:href="#hl"/>
<use x="471.63" y="105.01" xlink:href="#hd"/>
<path d="M475.13 105.01v-20.00" stroke="currentColor" fill="none"/>
<use x="510.43" y="105.01" xlink:href="#hl"/>
<use x="510.43" y="105.01" xlink:href="#Hd"/>
<path d="M513.93 105.01v-20.00" stroke="currentColor" fill="none"/>
<use x="574.03" y="102.01" xlink:href="#hd"/>
<path d="M577.53 102.01v-20.00" stroke="currentColor" fill="none"/>
<use x="612.73" y="105.01" xlink:href="#hl"/>
<use x="612.73" y="108.01" xlink:href="#hd"/>
<path d="M616.23 108.01v-21.00" stroke="currentColor" fill="none"/>
<use x="651.43" y="105.01" xlink:href="#hl"/>
<use x="651.43" y="108.01" xlink:href="#Hd"/>
<path d="M654.93 108.01v-21.00" stroke="currentColor" fill="none"/>
<path stroke="currentColor" fill="none"
	d="M215.93 190.31v-24.00"/>
<path stroke="currentColor" fill="none"
	d="M407.93 190.31v-24.00"/>
<path stroke="currentColor" fill="none"
	d="M552.83 190.31v-24.00"/>
<path stroke="currentColor" fill="none"
	d="M694.93 190.31v-24.00"/>
<path stroke="currentColor" fill="none"
	d="M13.33 190.31h681.60m-681.60 -6h681.60m-681.60 -6h681.60m-681.60 -6h681.60m-681.60 -6h681.60"/>
</g>
<g transform="scale(0.750)" stroke-width="0.70" font-family="Times" font-size="13.00" font-weight="bold">
<text x="55.33" y="212.11">Can</text>
<path stroke="currentColor" fill="none" stroke-width="1.2"
	stroke-dasharray="5,23"
	d="M100.08 208.21h5"/>
<text x="121.13" y="212.11">ta</text>
<path stroke="currentColor" fill="none" stroke-width="0.8"
	d="M133.93 212.11h26.00"/>
<text x="176.33" y="212.11">te</text>
<text x="257.13" y="212.11">can</text>
<path stroke="currentColor" fill="none" stroke-width="0.8"
	d="M279.13 212.11h20.50"/>
<text x="313.13" y="212.11">ta</text>
<path stroke="currentColor" fill="none" stroke-width="0.8"
	d="M326.03 212.11h26.00"/>
<text x="368.43" y="212.11">te</text>
<text x="416.03" y="212.11">Do</text>
<path stroke="currentColor" fill="none" stroke-width="1.2"
	stroke-dasharray="5,20"
	d="M446.28 208.21h5"/>
<text x="458.03" y="212.11">mi</text>
<path stroke="currentColor" fill="none" stroke-width="1.2"
	stroke-dasharray="5,20"
	d="M486.23 208.21h5"/>
<text x="498.13" y="212.11">no</text>
<text x="560.83" y="212.11">me</text>
<path stroke="currentColor" fill="none" stroke-width="0.8"
	d="M580.53 212.11h36.80"/>
<text x="642.93" y="212.11">o</text>
<text x="62.93" y="226.31">et</text>
<text x="119.83" y="226.31">ex</text>
<path stroke="currentColor" fill="none" stroke-width="0.8"
	d="M135.73 226.31h24.20"/>
<text x="171.23" y="226.31">sul</text>
<path stroke="currentColor" fill="none" stroke-width="1.2"
	stroke-dasharray="5,29"
	d="M207.83 222.41h39"/>
<text x="260.83" y="226.31">ta</text>
<path stroke="currentColor" fill="none" stroke-width="0.8"
	d="M273.63 226.31h26.00"/>
<text x="311.33" y="226.31">vit</text>
<path stroke="currentColor" fill="none" stroke-width="0.8"
	d="M328.73 226.31h52.30"/>
<text x="416.33" y="226.31">spi</text>
<path stroke="currentColor" fill="none" stroke-width="1.2"
	stroke-dasharray="5,23"
	d="M447.33 222.41h5"/>
<text x="460.53" y="226.31">ri</text>
<path stroke="currentColor" fill="none" stroke-width="1.2"
	stroke-dasharray="5,23"
	d="M483.88 222.41h5"/>
<text x="497.13" y="226.31">tus</text>
<text x="560.83" y="226.31">me</text>
<path stroke="currentColor" fill="none" stroke-width="0.8"
	d="M580.53 226.31h36.80"/>
<text x="640.83" y="226.31">us</text>
<use x="25.33" y="190.31" xlink:href="#tclef"/>
<use x="40.33" y="178.31" xlink:href="#ft0"/>
<use x="45.83" y="169.31" xlink:href="#ft0"/>
<use x="69.63" y="196.31" xlink:href="#hl"/>
<use x="69.63" y="196.31" xlink:href="#Hd"/>
<path d="M73.13 196.31v-20.00" stroke="currentColor" fill="none"/>
<path fill="currentColor"
	d="M130.93 164.51l26.90 2.50v3.20l-26.90 -2.50"/>
<use x="127.73" y="184.31" xlink:href="#hd"/>
<path d="M131.23 184.31v-18.70" stroke="currentColor" fill="none"/>
<use x="153.93" y="187.31" xlink:href="#hd"/>
<path d="M157.43 187.31v-19.30" stroke="currentColor" fill="none"/>
<use x="183.03" y="184.31" xlink:href="#hd"/>
<path d="M186.53 184.31v-20.00" stroke="currentColor" fill="none"/>
<use x="230.43" y="178.31" xlink:href="#r4"/>
<path fill="currentColor"
	d="M270.63 169.31l79.20 0.00v3.20l-79.20 -0.00"/>
<use x="267.43" y="187.31" xlink:href="#hd"/>
<path d="M270.93 187.31v-17.00" stroke="currentColor" fill="none"/>
<use x="293.63" y="190.31" xlink:href="#hd"/>
<path d="M297.13 190.31v-20.00" stroke="currentColor" fill="none"/>
<use x="319.83" y="193.31" xlink:href="#hd"/>
<path d="M323.33 193.31v-23.00" stroke="currentColor" fill="none"/>
<use x="346.03" y="190.31" xlink:href="#hd"/>
<path d="M349.53 190.31v-20.00" stroke="currentColor" fill="none"/>
<use x="375.13" y="187.31" xlink:href="#hd"/>
<path d="M378.63 187.31v-20.00" stroke="currentColor" fill="none"/>
<use x="428.13" y="184.31" xlink:href="#hd"/>
<path d="M431.63 184.31v-20.00" stroke="currentColor" fill="none"/>
<use x="469.23" y="175.31" xlink:href="#hd"/>
<path d="M465.73 175.31v20.00" stroke="currentColor" fill="none"/>
<use x="506.23" y="184.31" xlink:href="#Hd"/>
<path d="M509.73 184.31v-20.00" stroke="currentColor" fill="none"/>
<use x="570.23" y="187.31" xlink:href="#hd"/>
<path d="M573.73 187.31v-20.00" stroke="currentColor" fill="none"/>
<use x="611.43" y="178.31" xlink:href="#hd"/>
<path d="M607.93 178.31v20.00" stroke="currentColor" fill="none"/>
<use x="648.43" y="187.31" xlink:href="#Hd"/>
<path d="M651.93 187.31v-20.00" stroke="currentColor" fill="none"/>
<path stroke="currentColor" fill="none"
	d="M268.63 278.61v-24.00"/>
<path stroke="currentColor" fill="none"
	d="M490.63 278.61v-24.00"/>
<path stroke="currentColor" fill="none"
	d="M594.03 278.61v-24.00"/>
<path stroke="currentColor" fill="none"
	d="M694.93 278.61v-24.00"/>
<path stroke="currentColor" fill="none"
	d="M691.93 278.61v-24.00"/>
<path stroke="currentColor" fill="none"
	d="M13.33 278.61h681.60m-681.60 -6h681.60m-681.60 -6h681.60m-681.60 -6h681.60m-681.60 -6h681.60"/>
<text x="55.33" y="300.41">Al</text>
<path stroke="currentColor" fill="none" stroke-width="1.2"
	stroke-dasharray="5,23"
	d="M93.23 296.51h5"/>
<text x="115.63" y="300.41">le</text>
<path stroke="currentColor" fill="none" stroke-width="1.2"
	stroke-dasharray="5,20"
	d="M139.13 296.51h5"/>
<text x="150.93" y="300.41">lu</text>
<path stroke="currentColor" fill="none" stroke-width="0.8"
	d="M164.53 300.41h32.20"/>
<text x="220.63" y="300.41">ia</text>
<text x="277.33" y="300.41">Al</text>
<path stroke="currentColor" fill="none" stroke-width="1.2"
	stroke-dasharray="5,23"
	d="M315.13 296.51h5"/>
<text x="337.63" y="300.41">le</text>
<path stroke="currentColor" fill="none" stroke-width="1.2"
	stroke-dasharray="5,20"
	d="M361.13 296.51h5"/>
<text x="372.93" y="300.41">lu</text>
<path stroke="currentColor" fill="none" stroke-width="0.8"
	d="M386.53 300.41h32.20"/>
<text x="442.63" y="300.41">ia</text>
<text x="499.63" y="300.41">Hey</text>
<text x="59.23" y="314.61">in</text>
<path stroke="currentColor" fill="none" stroke-width="0.8"
	d="M72.93 314.61h58.10"/>
<text x="148.83" y="314.61">De</text>
<path stroke="currentColor" fill="none" stroke-width="0.8"
	d="M167.73 314.61h29.10"/>
<text x="221.83" y="314.61">o</text>
<text x="278.23" y="314.61">sa</text>
<path stroke="currentColor" fill="none" stroke-width="1.2"
	stroke-dasharray="5,26"
	d="M314.38 310.71h5"/>
<text x="337.33" y="314.61">lu</text>
<path stroke="currentColor" fill="none" stroke-width="1.2"
	stroke-dasharray="5,20"
	d="M361.48 310.71h5"/>
<text x="373.23" y="314.61">ta</text>
<path stroke="currentColor" fill="none" stroke-width="0.8"
	d="M386.03 314.61h32.70"/>
<text x="443.23" y="314.61">ri</text>
<text x="499.23" y="314.61">meo</text>
<use x="25.33" y="278.61" xlink:href="#tclef"/>
<use x="40.33" y="266.61" xlink:href="#ft0"/>
<use x="45.83" y="257.61" xlink:href="#ft0"/>
<use x="66.23" y="272.61" xlink:href="#hd"/>
<circle fill="currentColor" cx="74.23" cy="269.61" r="1.2"/>
<path d="M69.73 272.61v-20.00" stroke="currentColor" fill="none"/>
<path fill="currentColor"
	d="M128.23 254.41l66.40 0.00v3.20l-66.40 -0.00"/>
<use x="125.03" y="272.61" xlink:href="#hd"/>
<path d="M128.53 272.61v-17.20" stroke="currentColor" fill="none"/>
<use x="157.93" y="272.61" xlink:href="#hd"/>
<path d="M161.43 272.61v-17.20" stroke="currentColor" fill="none"/>
<use x="190.83" y="275.61" xlink:href="#hd"/>
<path d="M194.33 275.61v-20.20" stroke="currentColor" fill="none"/>
<use x="227.33" y="278.61" xlink:href="#hd"/>
<path d="M230.83 278.61v-20.00" stroke="currentColor" fill="none"/>
<use x="288.23" y="275.61" xlink:href="#hd"/>
<circle fill="currentColor" cx="296.23" cy="275.61" r="1.2"/>
<path d="M291.73 275.61v-20.00" stroke="currentColor" fill="none"/>
<path fill="currentColor"
	d="M350.13 257.61l66.40 0.00v3.20l-66.40 -0.00"/>
<use x="347.03" y="275.61" xlink:href="#hd"/>
<path d="M350.53 275.61v-17.00" stroke="currentColor" fill="none"/>
<use x="379.93" y="275.61" xlink:href="#hd"/>
<path d="M383.43 275.61v-17.00" stroke="currentColor" fill="none"/>
<use x="412.73" y="278.61" xlink:href="#hd"/>
<path d="M416.23 278.61v-20.00" stroke="currentColor" fill="none"/>
<use x="449.33" y="281.61" xlink:href="#hd"/>
<path d="M452.83 281.61v-20.00" stroke="currentColor" fill="none"/>
<defs>
<path id="hl1" stroke="currentColor" d="m-7 0h14"/>
</defs>
<use x="512.43" y="284.61" xlink:href="#hl1"/>
<defs>
<path id="HD" fill="currentColor" d="m-2.7 -1.4
	c1.5 -2.8 6.9 0 5.3 2.7
	c-1.5 2.8 -6.9 0 -5.3 -2.7
	m8.3 1.4
	c0 -1.5 -2.2 -3 -5.6 -3
	c-3.4 0 -5.6 1.5 -5.6 3
	c0 1.5 2.2 3 5.6 3
	c3.4 0 5.6 -1.5 5.6 -3"/>
</defs>
<use x="512.43" y="284.61" xlink:href="#HD"/>
<defs>
<rect id="r1" fill="currentColor"
	x="-3.5" y="-6" width="7" height="3"/>
</defs>
<use x="644.53" y="266.61" xlink:href="#r1"/>
</g>
</svg>
